<svg xmlns="http://www.w3.org/2000/svg" viewBox="0 0 849.72 707.84"><defs><style>.cls-1{fill:#013bd6;}.cls-2{fill:#000d46;}.cls-3{fill:#00e193;}.cls-4{fill:none;stroke:#000d46;stroke-linecap:round;stroke-miterlimit:10;stroke-width:2px;}.cls-5{fill:#ef5ed4;}.cls-6{fill:#fff;}.cls-7{fill:#00adff;}.cls-8{fill:#ffc300;}</style></defs><title>main</title><g id="Layer_2" data-name="Layer 2"><g id="Layer_1-2" data-name="Layer 1"><path class="cls-1" d="M271.53,310l-21.77-30.89-76,22.85-1.12,37.77L132,351.89l9.42-210.81,46.59-14L312.4,297.66Zm-96.37-46.8,52.32-15.72L177.9,177.36Z"/><path class="cls-2" d="M226.89,249.06a1,1,0,0,1-.82-.43L178.21,181l-1.46,45.78a1,1,0,0,1-1,1,1,1,0,0,1-1-1L176.31,178a1,1,0,0,1,1.81-.55l49.59,70.07a1,1,0,0,1-.24,1.39A1,1,0,0,1,226.89,249.06Z"/><path class="cls-2" d="M131,353.23l.06-1.41L140.44,141a1,1,0,0,1,1.05-.95,1,1,0,0,1,.95,1l-9.36,209.4,39.25-11.8a1,1,0,0,1,1.25.67,1,1,0,0,1-.67,1.25Z"/><g id="flower"><path class="cls-3" d="M717.81,367.08C772.42,293.7,830,276.32,847,318.42S798.77,385.24,717.81,367.08Z"/><path class="cls-3" d="M717,281.3c-53.8-44.43-62.69-138.22,0-138.22S766.37,262,717,281.3Z"/><path class="cls-2" d="M718.48,539.48a1,1,0,0,1-1-1L716,159.87a1,1,0,0,1,1-1h0a1,1,0,0,1,1,1l1.48,378.61a1,1,0,0,1-1,1Z"/><path class="cls-2" d="M717.81,368.08a1,1,0,0,1-1-1,1,1,0,0,1,.61-.91l98.64-41.33a1,1,0,1,1,.77,1.85h0L718.2,368A1.09,1.09,0,0,1,717.81,368.08Z"/><path class="cls-3" d="M745.91,485c-46-43,37.63-132.61,86.13-92.36S793.94,529.83,745.91,485Z"/><path class="cls-2" d="M718.48,514.66a1,1,0,0,1-1-1,1,1,0,0,1,.28-.69L822.35,403.48a1,1,0,0,1,1.4-.14,1,1,0,0,1,.14,1.41l-.1.11L719.21,514.35A1,1,0,0,1,718.48,514.66Z"/><path class="cls-3" d="M718.48,405,589,281.3s-12.38,67.95,35.09,99.42S718.48,405,718.48,405Z"/><line class="cls-4" x1="608.99" y1="300.39" x2="718.48" y2="404.98"/></g><path class="cls-5" d="M63.59,349.06c0,198.15,160.62,358.78,358.77,358.78S781.14,547.21,781.14,349.06H63.59"/><path class="cls-1" d="M351.92,700.56l-60-60,96.93-96.93,96.94,96.93L418.9,707.45s-22.78-.67-36.53-2.2C368.06,703.67,351.92,700.56,351.92,700.56Z"/><rect class="cls-3" x="446.22" y="258.98" width="72.52" height="432.3" transform="translate(-37.08 40.86) rotate(-4.67)"/><path class="cls-1" d="M537.28,110.89V568.4a19.42,19.42,0,0,1-19.4,19.4H673.07a19.42,19.42,0,0,0,19.4-19.4V110.89Z"/><g id="white_line" data-name="white line"><path class="cls-6" d="M692.42,505.71H537.26a.51.51,0,0,1-.5-.5.5.5,0,0,1,.5-.5H692.42a.5.5,0,0,1,.5.5A.52.52,0,0,1,692.42,505.71Z"/><path class="cls-6" d="M692.42,531.85H537.26a.5.5,0,0,1-.5-.5.5.5,0,0,1,.5-.5H692.42a.51.51,0,0,1,.5.5A.5.5,0,0,1,692.42,531.85Z"/><path class="cls-6" d="M692.42,558H537.26a.5.5,0,0,1-.5-.5.5.5,0,0,1,.5-.5H692.42a.51.51,0,0,1,.5.5A.5.5,0,0,1,692.42,558Z"/><path class="cls-6" d="M563,587.45a.5.5,0,0,1-.5-.5V110.89a.5.5,0,0,1,.5-.5.5.5,0,0,1,.5.5V587A.52.52,0,0,1,563,587.45Z"/><path class="cls-6" d="M590,574.78a.5.5,0,0,1-.5-.5V110.89a.5.5,0,0,1,.5-.5.5.5,0,0,1,.5.5V574.28A.52.52,0,0,1,590,574.78Z"/><path class="cls-6" d="M617,568a.5.5,0,0,1-.5-.5V110.89a.5.5,0,0,1,.5-.5.5.5,0,0,1,.5.5V567.51A.51.51,0,0,1,617,568Z"/><path class="cls-6" d="M644,570.18a.5.5,0,0,1-.5-.5V110.89a.5.5,0,0,1,.5-.5.5.5,0,0,1,.5.5V569.68A.52.52,0,0,1,644,570.18Z"/><path class="cls-6" d="M671,588.3a.5.5,0,0,1-.5-.5V110.89a.5.5,0,0,1,.5-.5.5.5,0,0,1,.5.5V587.8A.52.52,0,0,1,671,588.3Z"/><path class="cls-6" d="M692.42,136.23H537.26a.5.5,0,0,1,0-1H692.42a.5.5,0,0,1,0,1Z"/><path class="cls-6" d="M692.42,163.23H537.26a.5.5,0,0,1,0-1H692.42a.5.5,0,0,1,0,1Z"/><path class="cls-6" d="M692.42,190.23H537.26a.5.5,0,0,1,0-1H692.42a.5.5,0,0,1,0,1Z"/><path class="cls-6" d="M692.42,217.23H537.26a.5.5,0,0,1,0-1H692.42a.5.5,0,0,1,0,1Z"/><path class="cls-6" d="M692.42,244.23H537.26a.5.5,0,0,1,0-1H692.42a.5.5,0,0,1,0,1Z"/><path class="cls-6" d="M692.42,270.38H537.26a.51.51,0,0,1-.5-.5.5.5,0,0,1,.5-.5H692.42a.5.5,0,0,1,.5.5A.52.52,0,0,1,692.42,270.38Z"/><path class="cls-6" d="M692.42,296.53H537.26a.51.51,0,0,1-.5-.5.5.5,0,0,1,.5-.5H692.42a.5.5,0,0,1,.5.5A.52.52,0,0,1,692.42,296.53Z"/><path class="cls-6" d="M692.42,322.67H537.26a.5.5,0,0,1-.5-.5.5.5,0,0,1,.5-.5H692.42a.51.51,0,0,1,.5.5A.5.5,0,0,1,692.42,322.67Z"/><path class="cls-6" d="M692.42,348.82H537.26a.5.5,0,0,1,0-1H692.42a.5.5,0,0,1,0,1Z"/><path class="cls-6" d="M692.42,375H537.26a.51.51,0,0,1-.5-.5.5.5,0,0,1,.5-.5H692.42a.5.5,0,0,1,.5.5A.52.52,0,0,1,692.42,375Z"/><path class="cls-6" d="M692.42,401.12H537.26a.51.51,0,0,1-.5-.5.5.5,0,0,1,.5-.5H692.42a.5.5,0,0,1,.5.5A.52.52,0,0,1,692.42,401.12Z"/><path class="cls-6" d="M692.42,427.26H537.26a.5.5,0,0,1-.5-.5.5.5,0,0,1,.5-.5H692.42a.51.51,0,0,1,.5.5A.5.5,0,0,1,692.42,427.26Z"/><path class="cls-6" d="M692.42,453.41H537.26a.5.5,0,0,1,0-1H692.42a.5.5,0,0,1,0,1Z"/><path class="cls-6" d="M692.42,479.56H537.26a.5.5,0,0,1,0-1H692.42a.5.5,0,0,1,0,1Z"/></g><path class="cls-2" d="M634.27,481.11h0a19.39,19.39,0,0,1,19.4,19.38h0v67.9a19.41,19.41,0,0,0,19.4,19.4H585.78V481.11Z"/><path class="cls-7" d="M634.27,481.11H479.08a19.4,19.4,0,0,0-19.4,19.39V705.56A356.56,356.56,0,0,0,614.87,651.5v-151A19.4,19.4,0,0,1,634.27,481.11Z"/><g id="black_line" data-name="black line"><path class="cls-2" d="M485.47,702.44a.5.5,0,0,1-.5-.5V481.11a.5.5,0,0,1,.5-.5.5.5,0,0,1,.5.5V701.94A.5.5,0,0,1,485.47,702.44Z"/><path class="cls-2" d="M512.47,696.56a.5.5,0,0,1-.5-.5V481.11a.5.5,0,0,1,.5-.5.5.5,0,0,1,.5.5V696.06A.5.5,0,0,1,512.47,696.56Z"/><path class="cls-2" d="M539.47,693.43a.5.5,0,0,1-.5-.5V481.11a.5.5,0,0,1,.5-.5.5.5,0,0,1,.5.5V692.93A.52.52,0,0,1,539.47,693.43Z"/><path class="cls-2" d="M566.47,694.43a.5.5,0,0,1-.5-.5V481.11a.5.5,0,0,1,.5-.5.5.5,0,0,1,.5.5V693.93A.5.5,0,0,1,566.47,694.43Z"/><path class="cls-2" d="M593.47,681.78a.5.5,0,0,1-.5-.5V481.11a.5.5,0,0,1,.5-.5.5.5,0,0,1,.5.5V681.28A.5.5,0,0,1,593.47,681.78Z"/><path class="cls-2" d="M614.84,506.45H459.68a.51.51,0,0,1-.5-.5.5.5,0,0,1,.5-.5H614.84a.5.5,0,0,1,.5.5A.52.52,0,0,1,614.84,506.45Z"/><path class="cls-2" d="M614.84,533.45H459.68a.51.51,0,0,1-.5-.5.5.5,0,0,1,.5-.5H614.84a.5.5,0,0,1,.5.5A.52.52,0,0,1,614.84,533.45Z"/><path class="cls-2" d="M614.84,560.45H459.68a.51.51,0,0,1-.5-.5.5.5,0,0,1,.5-.5H614.84a.5.5,0,0,1,.5.5A.52.52,0,0,1,614.84,560.45Z"/><path class="cls-2" d="M614.84,587.45H459.68a.51.51,0,0,1-.5-.5.5.5,0,0,1,.5-.5H614.84a.5.5,0,0,1,.5.5A.52.52,0,0,1,614.84,587.45Z"/><path class="cls-2" d="M614.84,614.45H459.68a.51.51,0,0,1-.5-.5.5.5,0,0,1,.5-.5H614.84a.5.5,0,0,1,.5.5A.52.52,0,0,1,614.84,614.45Z"/><path class="cls-2" d="M614.84,640.59H459.68a.5.5,0,0,1-.5-.5.5.5,0,0,1,.5-.5H614.84a.51.51,0,0,1,.5.5A.5.5,0,0,1,614.84,640.59Z"/><path class="cls-2" d="M614.84,664.78H459.68a.5.5,0,0,1,0-1H614.84a.5.5,0,0,1,0,1Z"/><path class="cls-2" d="M602.36,689H459.68a.5.5,0,0,1-.5-.5.5.5,0,0,1,.5-.5H602.36a.5.5,0,1,1,0,1Z"/></g><path class="cls-2" d="M222.32,646.57,237,307.51l98.77,4.28L319.3,692.45s-20.81-5.44-50.14-19.24A331.21,331.21,0,0,1,222.32,646.57Z"/><circle class="cls-1" cx="360.81" cy="246.5" r="69.83"/><rect class="cls-8" x="298.23" y="25.92" width="125.15" height="125.15" transform="translate(43.1 281.04) rotate(-45)"/><g id="flower-2" data-name="flower"><path class="cls-3" d="M90.9,384C85,305.59,32.13,294.57,19.63,308.31S23.11,368.3,90.9,384Z"/><path class="cls-3" d="M131.5,450.34C66.64,404.68.88,400.44,0,423.33S99.39,483,137.1,462.86Z"/><path class="cls-3" d="M151.85,505.87c58.63-47.18,78.5-98.44,59.82-110.4S149,460.32,150.17,499.75Z"/><path class="cls-3" d="M159.44,545.22C127.08,500.71,67,474.91,59.67,496.89s66.63,63.18,100.61,56Z"/><path class="cls-2" d="M161.3,595.29h0a1,1,0,0,1-1-1,294.6,294.6,0,0,0-16.07-110,350.58,350.58,0,0,0-42.79-84C70,354.39,37.13,328.06,36.8,327.8a1,1,0,0,1-.17-1.41h0a1,1,0,0,1,1.4-.16c.33.26,33.37,26.74,65,72.8a352.46,352.46,0,0,1,43.06,84.48,296.54,296.54,0,0,1,16.19,110.83A1,1,0,0,1,161.3,595.29Z"/><path class="cls-3" d="M122.15,432c47.49-69.77,10.49-108.94-2.55-111S85.66,366.49,122.15,432Z"/><path class="cls-2" d="M122.16,433H122a1,1,0,0,1-.85-1.13c.07-.46,6.58-46.76.89-80.76a1,1,0,0,1,.83-1.17,1,1,0,0,1,1.17.84c5.74,34.31-.81,80.91-.88,81.37A1,1,0,0,1,122.16,433Z"/><path class="cls-3" d="M161.62,587.55c83.21-14.09,85.84-67.9,78.31-78.76S183.57,515.86,161.62,587.55Z"/><path class="cls-2" d="M161.62,588.55a1,1,0,0,1-.58-1.81c.38-.28,38.27-27.65,58.85-55.31a1,1,0,0,1,1.61,1.19c-20.77,27.92-58.91,55.47-59.3,55.74A1,1,0,0,1,161.62,588.55Z"/><path class="cls-2" d="M134.07,457.1a1.36,1.36,0,0,1-.35-.07,626.81,626.81,0,0,0-92-26.89,1,1,0,1,1,.37-2,629.16,629.16,0,0,1,92.38,27,1,1,0,0,1-.36,1.94Z"/><path class="cls-2" d="M151,503.76a1,1,0,0,1-.54-.15,1,1,0,0,1-.31-1.38h0c.34-.54,34.17-53.58,48.11-83a1,1,0,0,1,1.33-.47,1,1,0,0,1,.48,1.33c-14,29.5-47.89,82.65-48.23,83.18A1,1,0,0,1,151,503.76Z"/><path class="cls-2" d="M159.71,550.4a1,1,0,0,1-.42-.09c-38.66-17.46-71.8-40.35-72.13-40.58a1,1,0,1,1,1.14-1.65h0c.33.23,33.32,23,71.82,40.41a1,1,0,0,1,.49,1.32,1,1,0,0,1-.9.59Z"/></g><path class="cls-2" d="M312.55,298.32a1,1,0,0,1-.81-.42L187.37,127.32a1,1,0,1,1,1.62-1.18L313.35,296.73a1,1,0,0,1-.21,1.39A1,1,0,0,1,312.55,298.32Z"/></g></g></svg>